<svg width="18" height="18" viewBox="0 0 18 18" fill="none" xmlns="http://www.w3.org/2000/svg">
<path d="M2.05224 17.5C1.54711 17.5 1.11955 17.325 0.769568 16.975C0.419568 16.625 0.244568 16.1974 0.244568 15.6923V2.30772C0.244568 1.80259 0.419568 1.37503 0.769568 1.02503C1.11955 0.675025 1.54711 0.500025 2.05224 0.500025H11.2061V2H2.05224C1.96249 2 1.88877 2.02885 1.83107 2.08655C1.77337 2.14425 1.74452 2.21797 1.74452 2.30772V15.6923C1.74452 15.782 1.77337 15.8558 1.83107 15.9135C1.88877 15.9712 1.96249 16 2.05224 16H15.4368C15.5266 16 15.6003 15.9712 15.658 15.9135C15.7157 15.8558 15.7445 15.782 15.7445 15.6923V6.53843H17.2445V15.6923C17.2445 16.1974 17.0695 16.625 16.7195 16.975C16.3695 17.325 15.9419 17.5 15.4368 17.5H2.05224ZM4.10994 13.75H5.60989V7.25003H4.10994V13.75ZM7.99454 13.75H9.49452V4.25003H7.99454V13.75ZM11.8791 13.75H13.3791V10.25H11.8791V13.75ZM14.2446 5.49998V3.49998H12.2446V2H14.2446V0H15.7445V2H17.7445V3.49998H15.7445V5.49998H14.2446Z" fill="white"/>
</svg>
